<svg width="83" height="82" viewBox="0 0 83 82" fill="none" xmlns="http://www.w3.org/2000/svg">
<path d="M0.890358 39.0211C1.72274 38.1138 2.52357 37.1786 3.39625 36.3057C6.21991 33.4887 9.05759 30.6842 11.9093 27.8924C17.4976 22.3976 23.1122 16.9274 28.6672 11.4047C30.1182 9.96019 31.7794 9.10035 33.8893 8.90382C40.8883 8.2487 47.7909 8.43377 54.4411 10.897C54.8599 11.0446 55.2694 11.2141 55.6678 11.4047C56.6596 11.8961 57.5796 11.7896 58.5102 11.2328C63.6177 8.17555 68.7317 5.12543 73.8522 2.08242C74.4112 1.75486 75.2015 1.12595 75.6046 1.63039C76.0076 2.13483 75.0035 2.48368 74.5759 2.84563C70.5279 6.28171 66.4683 9.70633 62.3969 13.1195C56.898 17.7533 51.3943 22.3817 45.8861 27.0047C45.5181 27.3109 45.0747 28.0447 44.5455 27.6156C44.0163 27.1865 44.7365 26.6951 45.0169 26.3053C45.7056 25.3571 46.4643 24.453 47.2073 23.5391C47.9994 22.5564 47.868 21.975 46.601 21.5934C36.4232 18.516 24.097 21.6507 21.1636 34.0259C19.7424 40.0186 20.0175 45.9703 21.7103 51.8778C22.0871 53.188 22.4498 53.3256 23.6204 52.5051C25.5848 51.1277 27.5072 49.6995 29.4593 48.3058C29.985 47.934 30.6579 47.2805 31.1854 47.785C31.5622 48.1436 30.7385 48.6808 30.3635 49.0559C24.1823 55.2304 17.9959 61.3939 11.8041 67.5465C8.31692 71.0208 4.83962 74.5033 1.37226 77.994C1.18476 78.1824 1.00777 78.5427 0.671311 78.3068C0.397941 78.1168 0.496072 77.7582 0.659043 77.5354C1.21455 76.7575 1.79809 75.9943 2.3974 75.2425C5.11708 71.8447 7.84144 68.449 10.5705 65.0555C11.6675 63.6846 11.6622 63.4865 10.7369 61.983C7.44073 56.6405 5.7199 50.8837 5.3484 44.7239C5.22573 42.6652 5.3922 40.6295 5.39045 38.5839C5.39045 38.0925 5.65506 37.4374 5.02771 37.1655C4.47746 36.9281 4.10596 37.4931 3.68714 37.7437C2.83199 38.2694 2.07321 38.9442 0.890358 39.0211Z" fill="#161CCA"/>
<path d="M63.1784 39.6983C64.8904 39.6983 66.6043 39.6819 68.3163 39.6983C69.8111 39.7179 70.4192 40.278 70.4402 41.6767C70.4682 43.5209 70.4402 45.365 70.4402 47.2092C70.4402 47.5498 70.3631 47.9429 70.7574 48.1493C71.1937 48.3769 71.5249 48.1099 71.8579 47.8741C72.8392 47.183 73.8188 46.4918 74.8176 45.8269C75.112 45.6303 75.5186 45.4027 75.8025 45.7957C76.0601 46.1446 75.6851 46.3673 75.452 46.5704C70.0319 51.284 64.4962 55.8813 58.9569 60.472C54.4183 64.2389 49.9094 68.0238 45.3883 71.8022C44.251 72.7521 43.1277 73.7168 41.9729 74.6487C40.4378 75.8885 38.6294 76.221 36.6492 76.0146C32.2227 75.5511 27.9083 74.7355 23.8831 72.8389C22.6039 72.2362 21.3194 72.3918 20.063 73.1157C16.5792 75.1253 13.0535 77.0825 9.54873 79.0593C9.38926 79.1494 9.23505 79.2476 9.07032 79.3295C8.69532 79.5162 8.22043 79.7013 7.95056 79.3393C7.66142 78.9512 8.19764 78.7448 8.44473 78.545C12.4331 75.3055 16.4297 72.0752 20.4345 68.8542C24.5747 65.5142 28.7174 62.1769 32.8623 58.8424C33.2303 58.5476 33.6053 58.2626 33.9838 57.9793C34.1906 57.8253 34.4272 57.6615 34.6672 57.9105C34.9073 58.1594 34.7041 58.3625 34.5376 58.5509C33.7806 59.4107 33.013 60.2624 32.2595 61.1287C31.2168 62.3407 31.3518 62.8075 32.9236 63.2579C38.4927 64.8711 43.9426 64.4633 49.2575 62.3112C50.6041 61.798 51.9146 61.2056 53.1811 60.5375C54.6794 59.7071 55.5485 58.5312 55.6221 56.9114C55.687 55.5226 55.6712 54.1272 55.6379 52.7383C55.6186 51.9293 55.2436 51.3135 54.2676 51.2447C50.6384 50.9875 47.046 51.0612 43.6639 52.5254C42.6546 52.9627 41.7258 53.5605 40.7287 54.024C40.3274 54.2107 39.7421 54.5759 39.4127 54.1337C39.0832 53.6915 39.6072 53.2608 39.9384 52.9873C41.4594 51.7114 43.0261 50.4815 44.5822 49.2417C47.952 46.5573 51.3446 43.8992 54.6864 41.1837C55.9288 40.1748 57.2466 39.5869 58.9341 39.6917C60.3448 39.7654 61.7642 39.6966 63.1784 39.6983Z" fill="#161CCA"/>
<path d="M82.4996 0.0400737C80.9978 1.70734 79.6292 3.29928 78.1817 4.8257C71.3212 12.0533 64.1732 19.0466 57.6071 26.5232C56.5014 27.7826 55.1695 28.8652 53.9551 30.0428C53.6572 30.3327 53.1631 30.6455 53.4172 31.086C53.7063 31.5905 54.2934 31.3579 54.7297 31.2367C57.4511 30.4882 60.2584 30.1345 63.0395 29.6726C63.5249 29.5924 64.1259 29.3008 64.4414 29.9052C64.7568 30.5095 64.203 30.8649 63.814 31.2252C60.4582 34.337 56.8641 37.1999 53.2367 40.0333C47.3861 44.6049 41.5758 49.2207 35.8058 53.8808C29.1153 59.2986 22.4656 64.7579 15.8568 70.2587C12.1768 73.3034 8.45653 76.2923 4.65037 79.1929C4.45416 79.3529 4.24821 79.5022 4.03354 79.64C3.55865 79.92 3.01015 80.6374 2.54752 80.1559C2.18128 79.7759 2.84893 79.1617 3.24847 78.7687C7.05463 75.0509 10.9169 71.3806 14.6827 67.6317C22.4971 59.8478 30.2847 52.041 38.0454 44.2113C38.3678 43.8837 38.8672 43.5726 38.5711 43.0648C38.2521 42.5211 37.6791 42.7094 37.1692 42.8208C34.6335 43.376 32.0995 43.9329 29.5604 44.475C29.0732 44.5798 28.4844 44.8484 28.1585 44.2817C27.8325 43.715 28.3723 43.3777 28.7438 43.0714C32.703 39.7958 36.6686 36.535 40.6406 33.2889C46.1869 28.7587 51.7577 24.2564 57.2882 19.7181C63.3794 14.7251 69.4596 9.71341 75.5286 4.68321C77.4247 3.11748 79.2437 1.46659 81.4429 0.261176C81.6882 0.130153 81.9073 -0.0909495 82.4996 0.0400737Z" fill="#EBA13E"/>
<path d="M70.4625 58.9358C70.4625 60.4311 70.4099 61.9296 70.4748 63.4233C70.5589 65.3493 69.6862 66.7447 68.0214 67.824C63.1148 71.0226 57.8051 73.4269 51.9662 74.6618C48.3948 75.4168 45.4158 77.0382 42.7417 79.2918C41.7481 80.1288 40.6564 80.8625 39.5997 81.6339C39.2913 81.8583 38.939 82.2415 38.5605 81.7895C38.2311 81.3964 38.6885 81.1622 38.9303 80.9346C42.5612 77.5389 46.1968 74.147 49.8371 70.759C55.6783 65.2997 61.516 59.8338 67.3503 54.3614C67.7428 53.9929 68.1073 53.5966 68.4735 53.2035C68.8398 52.8104 69.2236 52.3518 69.8754 52.5844C70.5273 52.817 70.4607 53.4033 70.4607 53.9257C70.4631 55.5952 70.4637 57.2652 70.4625 58.9358Z" fill="#161CCA"/>
<path d="M9.10938 25.6993C9.15359 25.2035 9.31328 24.7228 9.57726 24.2908C12.5353 19.2726 16.5868 15.2829 21.9578 12.4397C26.018 10.2877 29.4982 7.37732 33.1625 4.69298C34.333 3.83477 35.5229 2.9995 36.7163 2.16914C37.0194 1.95787 37.3611 1.51403 37.7677 1.91201C38.197 2.33947 37.6538 2.59824 37.3874 2.82917C34.3103 5.50204 31.2419 8.18475 28.1226 10.8167C23.5139 14.7048 18.8648 18.552 14.2333 22.4188C12.7929 23.6226 11.3594 24.8362 9.92072 26.0432C9.75775 26.1808 9.58427 26.4002 9.35996 26.3118C9.07433 26.2054 9.12515 25.9089 9.10938 25.6993Z" fill="#161CCA"/>
<path d="M60.4023 28.2294C59.8328 28.2409 59.4981 28.1819 59.3421 27.8478C59.1406 27.4154 59.449 27.1272 59.7224 26.8373C61.9427 24.4953 64.1524 22.145 66.3814 19.8112C69.2541 16.8009 72.1345 13.7983 75.0224 10.8033C75.096 10.7264 75.1538 10.6395 75.2327 10.5609C75.4622 10.348 75.6865 9.99426 76.0545 10.2972C76.4225 10.6002 76.0931 10.8738 75.9056 11.1161C74.7543 12.6131 73.6082 14.1117 72.4324 15.5922C71.2355 17.1006 70.0264 18.6008 68.7892 20.0814C67.7728 21.295 67.5888 22.5479 68.2635 23.9761C69.3534 26.269 69.1397 26.626 66.5409 27.1174C64.431 27.5137 62.3107 27.8838 60.4023 28.2294Z" fill="#161CCA"/>
</svg>
